<svg width="200" height="35" viewBox="0 0 200 35" fill="none" xmlns="http://www.w3.org/2000/svg">
<g clip-path="url(#clip0_39_531)">
<path fill-rule="evenodd" clip-rule="evenodd" d="M56.4952 8.66187C53.8278 8.66187 51.5952 9.50271 49.8606 11.1641C48.1049 12.8011 47.2144 14.9175 47.2144 17.4522C47.2144 19.9869 48.1049 22.1033 49.8606 23.7403C51.5952 25.4017 53.8278 26.2425 56.4952 26.2425C59.1625 26.2425 61.3952 25.3976 63.1298 23.7403C64.8855 22.1033 65.7802 19.9869 65.7802 17.4522C65.7802 14.9175 64.8897 12.8011 63.134 11.1641C61.3994 9.50271 59.1667 8.66187 56.4994 8.66187H56.4952ZM60.5004 21.2908C59.4537 22.2942 58.1116 22.8019 56.491 22.8019C54.8703 22.8019 53.5282 22.2942 52.4815 21.2908C51.4348 20.2916 50.9073 18.9998 50.9073 17.4522C50.9073 15.9045 51.4391 14.6169 52.4815 13.6135C53.5282 12.6102 54.8703 12.1024 56.491 12.1024C58.1116 12.1024 59.4537 12.6102 60.5004 13.6135C61.5471 14.6169 62.0747 15.9045 62.0747 17.4522C62.0747 18.9998 61.5429 20.2875 60.5004 21.2908Z" fill="white"/>
<path fill-rule="evenodd" clip-rule="evenodd" d="M115.624 8.66187C112.957 8.66187 110.724 9.50271 108.989 11.1641C107.234 12.8011 106.343 14.9175 106.343 17.4522C106.343 19.9869 107.234 22.1033 108.989 23.7403C110.724 25.4017 112.957 26.2425 115.624 26.2425C118.291 26.2425 120.524 25.3976 122.259 23.7403C124.014 22.1033 124.905 19.9869 124.905 17.4522C124.905 14.9175 124.014 12.8011 122.259 11.1641C120.524 9.50271 118.291 8.66187 115.624 8.66187ZM119.634 21.2908C118.587 22.2942 117.245 22.8019 115.624 22.8019C114.003 22.8019 112.661 22.2942 111.615 21.2908C110.568 20.2916 110.04 18.9998 110.04 17.4522C110.04 15.9045 110.572 14.6169 111.615 13.6135C112.661 12.6102 114.003 12.1024 115.624 12.1024C117.245 12.1024 118.587 12.6102 119.634 13.6135C120.68 14.6169 121.208 15.9045 121.208 17.4522C121.208 18.9998 120.68 20.2875 119.634 21.2908Z" fill="white"/>
<path fill-rule="evenodd" clip-rule="evenodd" d="M136.836 8.66187H131.995V12.2568H128.239V26.2466H131.999V12.2649H136.857C138.583 12.2649 139.985 13.6054 139.985 15.2546V26.2425H143.745V15.2709C143.745 11.6231 140.656 8.66187 136.845 8.66187H136.836Z" fill="white"/>
<path fill-rule="evenodd" clip-rule="evenodd" d="M147.755 8.66202H142.977V12.261H147.772C149.498 12.261 150.895 13.6015 150.895 15.2507V26.2386H154.655V15.2669C154.655 11.6192 151.566 8.65796 147.755 8.65796V8.66202Z" fill="white"/>
<path fill-rule="evenodd" clip-rule="evenodd" d="M194.062 8.66187H189.837L184.886 14.8159L179.923 8.66187H175.703L182.789 17.4522L175.703 26.2466H179.923L184.886 20.0885L189.837 26.2466H194.062L186.976 17.4522L194.062 8.66187Z" fill="white"/>
<path fill-rule="evenodd" clip-rule="evenodd" d="M102.089 21.1284H102.085L102.089 21.1326V21.1284Z" fill="white"/>
<path fill-rule="evenodd" clip-rule="evenodd" d="M97.9445 12.1025C99.3077 12.1025 100.498 12.4762 101.473 13.2155C101.701 13.3861 101.899 13.577 102.089 13.7761L104.355 10.9611C104.279 10.892 104.199 10.823 104.123 10.7539C102.435 9.36467 100.359 8.65381 97.9445 8.65381C95.2771 8.65381 93.0445 9.49466 91.3099 11.156C89.5542 12.7931 88.6594 14.9094 88.6594 17.4441C88.6594 19.9789 89.5499 22.0952 91.3057 23.7322C93.0403 25.3936 95.2729 26.2344 97.9403 26.2344C100.35 26.2344 102.431 25.5317 104.119 24.1344C104.199 24.0653 104.275 23.9962 104.351 23.9272L102.093 21.1203C101.903 21.3153 101.705 21.5021 101.477 21.6727C100.502 22.412 99.3119 22.7857 97.9487 22.7857C96.3323 22.7857 94.9859 22.278 93.9392 21.2747C92.8926 20.2754 92.365 18.9836 92.365 17.436C92.365 15.8884 92.8968 14.6007 93.9392 13.5973C94.9859 12.594 96.328 12.0863 97.9487 12.0863L97.9445 12.1025Z" fill="white"/>
<path fill-rule="evenodd" clip-rule="evenodd" d="M41.0905 19.7311H41.0947V0.684082H37.3765V19.7108C37.3765 23.3179 40.4321 26.2426 44.1968 26.2426H45.1464V22.6842H44.1757C42.4664 22.6842 41.0863 21.36 41.0863 19.7311H41.0905Z" fill="white"/>
<path fill-rule="evenodd" clip-rule="evenodd" d="M85.6123 8.69043H81.8983V10.4087C80.4464 9.4541 78.7202 8.96665 76.7282 8.96665C74.1537 8.96665 72.0097 9.77094 70.3468 11.3673C68.6797 12.9597 67.8398 15.011 67.8398 17.4767C67.8398 19.9424 68.6839 21.9978 70.3468 23.586C72.0139 25.1824 74.1537 25.9867 76.7282 25.9867C78.716 25.9867 80.4464 25.4993 81.8983 24.5447V26.2304C81.8983 28.8708 79.9146 30.455 76.4918 30.455C73.7021 30.455 71.4863 28.7774 71.4863 28.7774C71.4863 28.7774 69.241 31.633 69.1988 31.6167C71.3217 33.2578 73.7147 34.0134 76.4159 34.0134C82.5187 34.0134 85.6123 31.1902 85.6123 25.942V8.69043ZM80.4886 21.0797C79.5052 22.0181 78.2433 22.4974 76.7282 22.4974C75.213 22.4974 73.9469 22.0221 72.9677 21.0797C71.9844 20.1414 71.4906 18.9309 71.4906 17.4807C71.4906 16.0306 71.9886 14.8201 72.9677 13.8818C73.9469 12.9434 75.213 12.4641 76.7282 12.4641C78.2433 12.4641 79.5095 12.9394 80.4886 13.8818C81.2694 14.6292 81.7337 15.5472 81.8983 16.6196V18.3419C81.7379 19.4143 81.2652 20.3364 80.4886 21.0797V21.0797Z" fill="white"/>
<path fill-rule="evenodd" clip-rule="evenodd" d="M172.883 10.9449C172.149 10.2137 171.271 9.64094 170.258 9.23474C169.245 8.80416 168.152 8.58887 166.979 8.58887C165.645 8.58887 164.404 8.81634 163.252 9.26723C162.125 9.69781 161.146 10.3193 160.319 11.1398C159.513 11.936 158.88 12.8825 158.42 13.9792C157.96 15.076 157.728 16.2905 157.728 17.6229C157.728 19.2965 158.128 20.7832 158.935 22.0749C159.766 23.3667 160.889 24.3863 162.315 25.1377C163.763 25.8689 165.421 26.2345 167.283 26.2345C168.135 26.2345 168.996 26.1289 169.87 25.9136C170.765 25.678 171.604 25.3652 172.385 24.9793C173.191 24.5934 173.871 24.1425 174.424 23.6226L174.453 23.5982L172.617 21.1894L172.584 21.2178C171.693 21.9449 170.862 22.4446 170.089 22.7208C169.338 22.997 168.519 23.1351 167.633 23.1351C166.38 23.1351 165.274 22.8995 164.32 22.4324C163.366 21.9653 162.628 21.3072 162.104 20.4582C161.716 19.8124 161.471 19.0853 161.374 18.2728H175.167L175.2 16.8186C175.221 15.6366 175.027 14.552 174.614 13.5608C174.221 12.5494 173.647 11.6801 172.888 10.9449H172.883ZM171.499 15.5594H161.509C161.615 15.1004 161.767 14.682 161.965 14.3042C162.395 13.4552 163.033 12.8175 163.868 12.395C164.708 11.9482 165.742 11.7248 166.975 11.7248C167.747 11.7248 168.46 11.8832 169.119 12.2C169.777 12.5169 170.321 12.9515 170.752 13.504C171.182 14.0523 171.431 14.6779 171.499 15.3766V15.5553V15.5594Z" fill="white"/>
<path d="M26.4836 20.3442H20.4314V26.1692H26.4836V20.3442V20.3442Z" fill="white"/>
<path d="M6.05217 20.3441V7.23584L0 13.0649V20.3685C0 23.5735 2.70111 26.1732 6.03106 26.1732H13.6195L19.6716 20.3482H6.05217V20.3441Z" fill="white"/>
<path d="M20.427 6.50909V19.6174L26.4792 13.7924V0.684082H12.8639L6.81177 6.50909H20.427Z" fill="#FE8F1C"/>
<path d="M197.248 6.44824V6.79352H196.657V8.58895H196.21V6.79352H195.619V6.44824H197.252H197.248Z" fill="white"/>
<path d="M200 6.44824V8.58895H199.553V7.19566L198.958 8.58895H198.62L198.021 7.19566V8.58895H197.573V6.44824H198.08L198.789 8.04057L199.498 6.44824H200V6.44824Z" fill="white"/>
</g>
<defs>
<clipPath id="clip0_39_531">
<rect width="200" height="33.3333" fill="white" transform="translate(0 0.684082)"/>
</clipPath>
</defs>
</svg>
